<svg xmlns="http://www.w3.org/2000/svg" viewBox="0 0 320 180" fill="none">
  <defs>
    <linearGradient id="btn-grad" x1="0" y1="0" x2="1" y2="1">
      <stop offset="0" stop-color="#3b82f6"></stop>
      <stop offset="1" stop-color="#1e40af"></stop>
    </linearGradient>
  </defs>
  <rect x="0" y="0" width="320" height="180" rx="10" fill="#f8fbff"></rect>
  
  <g transform="translate(110 40)">
    <rect x="0" y="0" width="100" height="44" rx="10" fill="url(#btn-grad)"></rect>
    <text x="50" y="28" text-anchor="middle" font-family="Inter, Noto Sans JP" font-size="14" font-weight="700" fill="#fff">▶ 作る</text>
  </g>
  
  <g stroke="#3b82f6" stroke-width="2" stroke-linecap="round" fill="none">
    <path d="M90 30 L95 30 M92.5 27.5 L92.5 32.5"></path>
    <path d="M225 30 L230 30 M227.5 27.5 L227.5 32.5"></path>
    <path d="M80 70 L85 70 M82.5 67.5 L82.5 72.5"></path>
    <path d="M235 70 L240 70 M237.5 67.5 L237.5 72.5"></path>
  </g>
  
  <path d="M160 95 L160 112 M154 106 L160 112 L166 106" stroke="#1e40af" stroke-width="2.5" stroke-linecap="round" stroke-linejoin="round" fill="none"></path>
  
  <g transform="translate(110 120)">
    <rect x="0" y="0" width="100" height="44" rx="6" fill="#fff" stroke="#d1fae5" stroke-width="2"></rect>
    <rect x="0" y="0" width="8" height="44" rx="6" fill="#059669"></rect>
    <text x="18" y="20" font-family="Inter" font-size="10" font-weight="700" fill="#059669">当直表.xlsx</text>
    <text x="18" y="34" font-family="Inter, Noto Sans JP" font-size="9" fill="#6b7280">✓ 生成完了</text>
  </g>
</svg>