<svg xmlns="http://www.w3.org/2000/svg" viewBox="0 0 320 180" fill="none">
  <rect x="0" y="0" width="320" height="180" rx="10" fill="#f8fbff"></rect>
  <g transform="translate(20 20)">
    <rect x="0" y="0" width="280" height="140" rx="8" fill="#fff" stroke="#e5e7eb"></rect>
    
    <rect x="0" y="0" width="35" height="22" fill="#eff6ff" stroke="#dbeafe" stroke-width=".5"></rect><text x="17.5" y="15" text-anchor="middle" font-family="Inter, Noto Sans JP" font-size="9" font-weight="700" fill="#1e40af">名前</text><rect x="35" y="0" width="35" height="22" fill="#eff6ff" stroke="#dbeafe" stroke-width=".5"></rect><text x="52.5" y="15" text-anchor="middle" font-family="Inter, Noto Sans JP" font-size="9" font-weight="700" fill="#1e40af">月</text><rect x="70" y="0" width="35" height="22" fill="#eff6ff" stroke="#dbeafe" stroke-width=".5"></rect><text x="87.5" y="15" text-anchor="middle" font-family="Inter, Noto Sans JP" font-size="9" font-weight="700" fill="#1e40af">火</text><rect x="105" y="0" width="35" height="22" fill="#eff6ff" stroke="#dbeafe" stroke-width=".5"></rect><text x="122.5" y="15" text-anchor="middle" font-family="Inter, Noto Sans JP" font-size="9" font-weight="700" fill="#1e40af">水</text><rect x="140" y="0" width="35" height="22" fill="#eff6ff" stroke="#dbeafe" stroke-width=".5"></rect><text x="157.5" y="15" text-anchor="middle" font-family="Inter, Noto Sans JP" font-size="9" font-weight="700" fill="#1e40af">木</text><rect x="175" y="0" width="35" height="22" fill="#eff6ff" stroke="#dbeafe" stroke-width=".5"></rect><text x="192.5" y="15" text-anchor="middle" font-family="Inter, Noto Sans JP" font-size="9" font-weight="700" fill="#1e40af">金</text><rect x="210" y="0" width="35" height="22" fill="#eff6ff" stroke="#dbeafe" stroke-width=".5"></rect><text x="227.5" y="15" text-anchor="middle" font-family="Inter, Noto Sans JP" font-size="9" font-weight="700" fill="#1e40af">土</text><rect x="245" y="0" width="35" height="22" fill="#eff6ff" stroke="#dbeafe" stroke-width=".5"></rect><text x="262.5" y="15" text-anchor="middle" font-family="Inter, Noto Sans JP" font-size="9" font-weight="700" fill="#1e40af">日</text>
    
    
      <rect x="0" y="22" width="35" height="23" fill="#fafbfc" stroke="#e5e7eb" stroke-width=".5"></rect>
      <text x="6" y="37" font-family="Inter, Noto Sans JP" font-size="9" font-weight="600" fill="#0f172a">A医師</text>
      <rect x="35" y="22" width="35" height="23" fill="#fff" stroke="#e5e7eb" stroke-width=".5"></rect><text x="52.5" y="38" text-anchor="middle" font-family="Inter" font-size="11" font-weight="700" fill="#059669">○</text><rect x="70" y="22" width="35" height="23" fill="#fff" stroke="#e5e7eb" stroke-width=".5"></rect><text x="87.5" y="38" text-anchor="middle" font-family="Inter" font-size="11" font-weight="700" fill="#059669">○</text><rect x="105" y="22" width="35" height="23" fill="#fff" stroke="#e5e7eb" stroke-width=".5"></rect><text x="122.5" y="38" text-anchor="middle" font-family="Inter" font-size="11" font-weight="700" fill="#94a3b8">✕</text><rect x="140" y="22" width="35" height="23" fill="#fff" stroke="#e5e7eb" stroke-width=".5"></rect><text x="157.5" y="38" text-anchor="middle" font-family="Inter" font-size="11" font-weight="700" fill="#059669">○</text><rect x="175" y="22" width="35" height="23" fill="#fff" stroke="#e5e7eb" stroke-width=".5"></rect><text x="192.5" y="38" text-anchor="middle" font-family="Inter" font-size="11" font-weight="700" fill="#059669">○</text><rect x="210" y="22" width="35" height="23" fill="#fff" stroke="#e5e7eb" stroke-width=".5"></rect><text x="227.5" y="38" text-anchor="middle" font-family="Inter" font-size="11" font-weight="700" fill="#94a3b8">✕</text><rect x="245" y="22" width="35" height="23" fill="#fff" stroke="#e5e7eb" stroke-width=".5"></rect><text x="262.5" y="38" text-anchor="middle" font-family="Inter" font-size="11" font-weight="700" fill="#059669">○</text>
    
      <rect x="0" y="45" width="35" height="23" fill="#fafbfc" stroke="#e5e7eb" stroke-width=".5"></rect>
      <text x="6" y="60" font-family="Inter, Noto Sans JP" font-size="9" font-weight="600" fill="#0f172a">B医師</text>
      <rect x="35" y="45" width="35" height="23" fill="#fff" stroke="#e5e7eb" stroke-width=".5"></rect><text x="52.5" y="61" text-anchor="middle" font-family="Inter" font-size="11" font-weight="700" fill="#059669">○</text><rect x="70" y="45" width="35" height="23" fill="#fff" stroke="#e5e7eb" stroke-width=".5"></rect><text x="87.5" y="61" text-anchor="middle" font-family="Inter" font-size="11" font-weight="700" fill="#94a3b8">✕</text><rect x="105" y="45" width="35" height="23" fill="#fff" stroke="#e5e7eb" stroke-width=".5"></rect><text x="122.5" y="61" text-anchor="middle" font-family="Inter" font-size="11" font-weight="700" fill="#059669">○</text><rect x="140" y="45" width="35" height="23" fill="#fff" stroke="#e5e7eb" stroke-width=".5"></rect><text x="157.5" y="61" text-anchor="middle" font-family="Inter" font-size="11" font-weight="700" fill="#059669">○</text><rect x="175" y="45" width="35" height="23" fill="#fff" stroke="#e5e7eb" stroke-width=".5"></rect><text x="192.5" y="61" text-anchor="middle" font-family="Inter" font-size="11" font-weight="700" fill="#94a3b8">✕</text><rect x="210" y="45" width="35" height="23" fill="#fff" stroke="#e5e7eb" stroke-width=".5"></rect><text x="227.5" y="61" text-anchor="middle" font-family="Inter" font-size="11" font-weight="700" fill="#059669">○</text><rect x="245" y="45" width="35" height="23" fill="#fff" stroke="#e5e7eb" stroke-width=".5"></rect><text x="262.5" y="61" text-anchor="middle" font-family="Inter" font-size="11" font-weight="700" fill="#059669">○</text>
    
      <rect x="0" y="68" width="35" height="23" fill="#fafbfc" stroke="#e5e7eb" stroke-width=".5"></rect>
      <text x="6" y="83" font-family="Inter, Noto Sans JP" font-size="9" font-weight="600" fill="#0f172a">C医師</text>
      <rect x="35" y="68" width="35" height="23" fill="#fff" stroke="#e5e7eb" stroke-width=".5"></rect><text x="52.5" y="84" text-anchor="middle" font-family="Inter" font-size="11" font-weight="700" fill="#94a3b8">✕</text><rect x="70" y="68" width="35" height="23" fill="#fff" stroke="#e5e7eb" stroke-width=".5"></rect><text x="87.5" y="84" text-anchor="middle" font-family="Inter" font-size="11" font-weight="700" fill="#059669">○</text><rect x="105" y="68" width="35" height="23" fill="#fff" stroke="#e5e7eb" stroke-width=".5"></rect><text x="122.5" y="84" text-anchor="middle" font-family="Inter" font-size="11" font-weight="700" fill="#059669">○</text><rect x="140" y="68" width="35" height="23" fill="#fff" stroke="#e5e7eb" stroke-width=".5"></rect><text x="157.5" y="84" text-anchor="middle" font-family="Inter" font-size="11" font-weight="700" fill="#94a3b8">✕</text><rect x="175" y="68" width="35" height="23" fill="#fff" stroke="#e5e7eb" stroke-width=".5"></rect><text x="192.5" y="84" text-anchor="middle" font-family="Inter" font-size="11" font-weight="700" fill="#059669">○</text><rect x="210" y="68" width="35" height="23" fill="#fff" stroke="#e5e7eb" stroke-width=".5"></rect><text x="227.5" y="84" text-anchor="middle" font-family="Inter" font-size="11" font-weight="700" fill="#059669">○</text><rect x="245" y="68" width="35" height="23" fill="#fff" stroke="#e5e7eb" stroke-width=".5"></rect><text x="262.5" y="84" text-anchor="middle" font-family="Inter" font-size="11" font-weight="700" fill="#059669">○</text>
    
      <rect x="0" y="91" width="35" height="23" fill="#fafbfc" stroke="#e5e7eb" stroke-width=".5"></rect>
      <text x="6" y="106" font-family="Inter, Noto Sans JP" font-size="9" font-weight="600" fill="#0f172a">D医師</text>
      <rect x="35" y="91" width="35" height="23" fill="#fff" stroke="#e5e7eb" stroke-width=".5"></rect><text x="52.5" y="107" text-anchor="middle" font-family="Inter" font-size="11" font-weight="700" fill="#059669">○</text><rect x="70" y="91" width="35" height="23" fill="#fff" stroke="#e5e7eb" stroke-width=".5"></rect><text x="87.5" y="107" text-anchor="middle" font-family="Inter" font-size="11" font-weight="700" fill="#059669">○</text><rect x="105" y="91" width="35" height="23" fill="#fff" stroke="#e5e7eb" stroke-width=".5"></rect><text x="122.5" y="107" text-anchor="middle" font-family="Inter" font-size="11" font-weight="700" fill="#94a3b8">✕</text><rect x="140" y="91" width="35" height="23" fill="#fff" stroke="#e5e7eb" stroke-width=".5"></rect><text x="157.5" y="107" text-anchor="middle" font-family="Inter" font-size="11" font-weight="700" fill="#059669">○</text><rect x="175" y="91" width="35" height="23" fill="#fff" stroke="#e5e7eb" stroke-width=".5"></rect><text x="192.5" y="107" text-anchor="middle" font-family="Inter" font-size="11" font-weight="700" fill="#059669">○</text><rect x="210" y="91" width="35" height="23" fill="#fff" stroke="#e5e7eb" stroke-width=".5"></rect><text x="227.5" y="107" text-anchor="middle" font-family="Inter" font-size="11" font-weight="700" fill="#059669">○</text><rect x="245" y="91" width="35" height="23" fill="#fff" stroke="#e5e7eb" stroke-width=".5"></rect><text x="262.5" y="107" text-anchor="middle" font-family="Inter" font-size="11" font-weight="700" fill="#94a3b8">✕</text>
    
      <rect x="0" y="114" width="35" height="23" fill="#fafbfc" stroke="#e5e7eb" stroke-width=".5"></rect>
      <text x="6" y="129" font-family="Inter, Noto Sans JP" font-size="9" font-weight="600" fill="#0f172a">E医師</text>
      <rect x="35" y="114" width="35" height="23" fill="#fff" stroke="#e5e7eb" stroke-width=".5"></rect><text x="52.5" y="130" text-anchor="middle" font-family="Inter" font-size="11" font-weight="700" fill="#059669">○</text><rect x="70" y="114" width="35" height="23" fill="#fff" stroke="#e5e7eb" stroke-width=".5"></rect><text x="87.5" y="130" text-anchor="middle" font-family="Inter" font-size="11" font-weight="700" fill="#94a3b8">✕</text><rect x="105" y="114" width="35" height="23" fill="#fff" stroke="#e5e7eb" stroke-width=".5"></rect><text x="122.5" y="130" text-anchor="middle" font-family="Inter" font-size="11" font-weight="700" fill="#059669">○</text><rect x="140" y="114" width="35" height="23" fill="#fff" stroke="#e5e7eb" stroke-width=".5"></rect><text x="157.5" y="130" text-anchor="middle" font-family="Inter" font-size="11" font-weight="700" fill="#059669">○</text><rect x="175" y="114" width="35" height="23" fill="#fff" stroke="#e5e7eb" stroke-width=".5"></rect><text x="192.5" y="130" text-anchor="middle" font-family="Inter" font-size="11" font-weight="700" fill="#059669">○</text><rect x="210" y="114" width="35" height="23" fill="#fff" stroke="#e5e7eb" stroke-width=".5"></rect><text x="227.5" y="130" text-anchor="middle" font-family="Inter" font-size="11" font-weight="700" fill="#94a3b8">✕</text><rect x="245" y="114" width="35" height="23" fill="#fff" stroke="#e5e7eb" stroke-width=".5"></rect><text x="262.5" y="130" text-anchor="middle" font-family="Inter" font-size="11" font-weight="700" fill="#059669">○</text>
    
  </g>
  
  <g transform="translate(175 95)">
    <path d="M0 0 L0 16 L5 12 L8 18 L11 16 L8 10 L14 10 Z" fill="#1e40af" stroke="#fff" stroke-width="1.2"></path>
  </g>
</svg>